<?xml version="1.0" encoding="UTF-8"?>
<svg xmlns="http://www.w3.org/2000/svg" width="1920" height="1480" viewBox="0 0 1920 1480" role="img" aria-labelledby="title desc">
  <title id="title">RIGOR-RS Research Evidence MCP architecture</title>
  <desc id="desc">End-to-end architecture for a read-only knowledge-layer MCP that connects the RIGOR-RS Research Agent to curated papers, scholarly APIs, code repositories, scheduled discovery, hybrid retrieval, provenance stores, and integrity controls.</desc>
  <defs>
    <linearGradient id="header" x1="0" y1="0" x2="1" y2="0">
      <stop offset="0" stop-color="#172554"/><stop offset="0.55" stop-color="#1e3a8a"/><stop offset="1" stop-color="#312e81"/>
    </linearGradient>
    <linearGradient id="mcpFill" x1="0" y1="0" x2="0" y2="1"><stop offset="0" stop-color="#eef2ff"/><stop offset="1" stop-color="#e0e7ff"/></linearGradient>
    <filter id="shadow" x="-20%" y="-20%" width="140%" height="140%"><feDropShadow dx="0" dy="3" stdDeviation="4" flood-color="#0f172a" flood-opacity="0.14"/></filter>
    <marker id="arrowBlue" viewBox="0 0 10 10" refX="9" refY="5" markerWidth="7" markerHeight="7" orient="auto-start-reverse"><path d="M0 0L10 5L0 10z" fill="#2563eb"/></marker>
    <marker id="arrowSlate" viewBox="0 0 10 10" refX="9" refY="5" markerWidth="7" markerHeight="7" orient="auto-start-reverse"><path d="M0 0L10 5L0 10z" fill="#64748b"/></marker>
    <marker id="arrowGreen" viewBox="0 0 10 10" refX="9" refY="5" markerWidth="7" markerHeight="7" orient="auto-start-reverse"><path d="M0 0L10 5L0 10z" fill="#059669"/></marker>
    <marker id="arrowAmber" viewBox="0 0 10 10" refX="9" refY="5" markerWidth="7" markerHeight="7" orient="auto-start-reverse"><path d="M0 0L10 5L0 10z" fill="#d97706"/></marker>
    <style>
      .canvas{fill:#f8fafc}.cluster{stroke-width:1.5;rx:18}.cluster-title{font:700 17px Inter,Segoe UI,Arial,sans-serif;letter-spacing:.7px}.box{stroke-width:1.3;rx:12;filter:url(#shadow)}
      .title{font:700 17px Inter,Segoe UI,Arial,sans-serif;fill:#0f172a}.body{font:13px Inter,Segoe UI,Arial,sans-serif;fill:#334155}.small{font:12px Inter,Segoe UI,Arial,sans-serif;fill:#475569}.tiny{font:11px Inter,Segoe UI,Arial,sans-serif;fill:#64748b}.mono{font:12px Consolas,SFMono-Regular,monospace;fill:#1e293b}
      .edge-blue{fill:none;stroke:#2563eb;stroke-width:2.3;marker-end:url(#arrowBlue)}.edge-slate{fill:none;stroke:#64748b;stroke-width:1.8;marker-end:url(#arrowSlate)}.edge-green{fill:none;stroke:#059669;stroke-width:2;marker-end:url(#arrowGreen)}.edge-amber{fill:none;stroke:#d97706;stroke-width:2;marker-end:url(#arrowAmber)}.dash{stroke-dasharray:7 6}
      .source{fill:#fff;stroke:#cbd5e1}.ingest{fill:#ecfdf5;stroke:#6ee7b7}.runtime{fill:#eef2ff;stroke:#a5b4fc}.store{fill:#f8fafc;stroke:#94a3b8}.warn{fill:#fffbeb;stroke:#fbbf24}.danger{fill:#fff1f2;stroke:#fb7185}.curated{fill:#fdf4ff;stroke:#d8b4fe}.pill{rx:8}
    </style>
  </defs>
  <rect class="canvas" width="1920" height="1480"/>
  <rect width="1920" height="96" fill="url(#header)"/>
  <text x="48" y="45" font-family="Inter,Segoe UI,Arial,sans-serif" font-size="30" font-weight="800" fill="#fff">RIGOR-RS Research Evidence MCP</text>
  <text x="48" y="73" font-family="Inter,Segoe UI,Arial,sans-serif" font-size="15" fill="#c7d2fe">Read-only, provenance-first knowledge layer for hypothesis formation, literature retrieval, and pinned implementation discovery</text>
  <rect x="1518" y="25" width="354" height="45" rx="12" fill="#fff" fill-opacity="0.11" stroke="#a5b4fc"/>
  <text x="1695" y="44" text-anchor="middle" font-family="Inter,Segoe UI,Arial,sans-serif" font-size="12" font-weight="700" fill="#e0e7ff">DESIGN INVARIANT</text>
  <text x="1695" y="62" text-anchor="middle" font-family="Inter,Segoe UI,Arial,sans-serif" font-size="12" fill="#fff">Evidence informs experiments; it never overrides the kernel</text>

  <rect x="40" y="118" width="1840" height="216" rx="18" fill="#eff6ff" stroke="#93c5fd" class="cluster"/>
  <text x="66" y="148" class="cluster-title" fill="#1e40af">RIGOR-RS INTEGRATION AND TRUST BOUNDARY</text>
  <rect x="70" y="171" width="312" height="118" class="box" fill="#dbeafe" stroke="#3b82f6"/>
  <text x="92" y="200" class="title">Research Agent</text><text x="92" y="225" class="body">Input: diagnostics, frontier, budget</text><text x="92" y="246" class="body">Output: one bounded hypothesis</text><text x="92" y="269" class="tiny">No bulk data, test labels, or arbitrary network</text>
  <rect x="434" y="171" width="300" height="118" class="box" fill="#dcfce7" stroke="#22c55e"/>
  <text x="456" y="200" class="title">Context Compiler</text><text x="456" y="225" class="body">Merges internal run evidence with</text><text x="456" y="246" class="body">bounded external evidence packs</text><text x="456" y="269" class="tiny">Logs source IDs, chars, tokens, cache hits</text>
  <rect x="786" y="171" width="300" height="118" class="box" fill="#f0fdf4" stroke="#16a34a"/>
  <text x="808" y="200" class="title">Evidence Gateway</text><text x="808" y="225" class="body">Capability check, redaction, budgets</text><text x="808" y="246" class="body">source policy, audit, fail-closed</text><text x="808" y="269" class="tiny">Only network path granted to Research Agent</text>
  <rect x="1138" y="171" width="300" height="118" class="box" fill="#ede9fe" stroke="#8b5cf6"/>
  <text x="1160" y="200" class="title">MCP Client + Transport</text><text x="1160" y="225" class="body">Local stdio by default</text><text x="1160" y="246" class="body">Authenticated HTTP for shared service</text><text x="1160" y="269" class="tiny">Typed schemas, deadlines, cancellation</text>
  <rect x="1490" y="171" width="330" height="118" class="box" fill="url(#mcpFill)" stroke="#6366f1"/>
  <text x="1512" y="200" class="title">Knowledge MCP Server</text><text x="1512" y="225" class="body">Read-only tool router and resource server</text><text x="1512" y="246" class="body">No shell, training, evaluator, or ledger writes</text><text x="1512" y="269" class="tiny">Available offline from indexed local snapshots</text>
  <path d="M382 210H434" class="edge-blue"/><path d="M734 210H786" class="edge-blue"/><path d="M1086 210H1138" class="edge-blue"/><path d="M1438 210H1490" class="edge-blue"/>
  <path d="M1490 265H1438M1138 265H1086M786 265H734M434 265H382" class="edge-slate dash"/>
  <text x="408" y="199" text-anchor="middle" class="tiny">scope</text><text x="760" y="199" text-anchor="middle" class="tiny">request</text><text x="1112" y="199" text-anchor="middle" class="tiny">allowed call</text><text x="1464" y="199" text-anchor="middle" class="tiny">tool call</text>
  <text x="960" y="314" text-anchor="middle" class="small">Return path: bounded evidence pack with provenance, applicability, conflicts, and explicit uncertainty</text>

  <rect x="40" y="360" width="330" height="632" rx="18" fill="#fff" stroke="#cbd5e1" class="cluster"/>
  <text x="64" y="390" class="cluster-title" fill="#334155">SOURCE CONNECTORS</text>
  <rect x="66" y="411" width="278" height="64" class="box source"/><text x="84" y="436" class="title">OpenAlex</text><text x="84" y="457" class="small">Works, authors, topics, references, OA links</text>
  <rect x="66" y="486" width="278" height="64" class="box source"/><text x="84" y="511" class="title">Semantic Scholar</text><text x="84" y="532" class="small">Paper graph, citations, recommendations</text>
  <rect x="66" y="561" width="278" height="64" class="box source"/><text x="84" y="586" class="title">arXiv + OpenReview</text><text x="84" y="607" class="small">Recent preprints, venues, revisions, reviews</text>
  <rect x="66" y="636" width="278" height="72" class="box source"/><text x="84" y="661" class="title">GitHub APIs</text><text x="84" y="682" class="small">Repository/code search, releases, commits</text><text x="84" y="699" class="tiny">Authenticated search; rate-limited and cached</text>
  <rect x="66" y="719" width="278" height="72" class="box source"/><text x="84" y="744" class="title">Software Heritage + Zenodo</text><text x="84" y="765" class="small">Durable source IDs and release archives</text><text x="84" y="782" class="tiny">Fallback when a live repository disappears</text>
  <rect x="66" y="802" width="278" height="72" class="box warn"/><text x="84" y="827" class="title">Papers with Code Archive</text><text x="84" y="848" class="small">Historical paper-code links only</text><text x="84" y="865" class="tiny">No live API dependency; freshness not assumed</text>
  <rect x="66" y="885" width="278" height="86" class="box curated"/><text x="84" y="910" class="title">Curated Intake</text><text x="84" y="931" class="small">DOI / arXiv ID / BibTeX / legal PDF</text><text x="84" y="950" class="small">Human notes, tags, priority, applicability</text><text x="84" y="965" class="tiny">Versioned manifest; curator status boosts rank only</text>

  <rect x="395" y="360" width="620" height="632" rx="18" fill="#f0fdf4" stroke="#86efac" class="cluster"/>
  <text x="419" y="390" class="cluster-title" fill="#166534">SCHEDULED INGESTION AND KNOWLEDGE BUILD</text>
  <rect x="425" y="411" width="262" height="75" class="box ingest"/><text x="445" y="438" class="title">Cron / Job Scheduler</text><text x="445" y="459" class="small">Configurable cadence + manual trigger</text><text x="445" y="477" class="tiny">Distributed lock, jitter, bounded retries</text>
  <rect x="719" y="411" width="266" height="75" class="box ingest"/><text x="739" y="438" class="title">Discovery Profiles</text><text x="739" y="459" class="small">RecSys, ranking, MTL, causal, KuaiRand</text><text x="739" y="477" class="tiny">Queries, venues, authors, citation seeds, cutoff</text>
  <rect x="425" y="512" width="262" height="75" class="box ingest"/><text x="445" y="539" class="title">Incremental Harvesters</text><text x="445" y="560" class="small">Per-source watermark and delta fetch</text><text x="445" y="578" class="tiny">ETag, cursor, retry-after, circuit breaker</text>
  <rect x="719" y="512" width="266" height="75" class="box ingest"/><text x="739" y="539" class="title">Request Cache + Quotas</text><text x="739" y="560" class="small">Credential vault, host budgets, backoff</text><text x="739" y="578" class="tiny">API outage falls back to indexed snapshots</text>
  <rect x="425" y="613" width="262" height="82" class="box ingest"/><text x="445" y="640" class="title">Normalize + Resolve IDs</text><text x="445" y="661" class="small">DOI, OpenAlex, S2, arXiv, venue, authors</text><text x="445" y="680" class="tiny">Canonical record; deduplicate versions/reprints</text>
  <rect x="719" y="613" width="266" height="82" class="box ingest"/><text x="739" y="640" class="title">Paper-to-Code Linker</text><text x="739" y="661" class="small">Metadata URLs + PDF links + GitHub search</text><text x="739" y="680" class="tiny">Verify paper ID, authors, release, commit, license</text>
  <rect x="425" y="713" width="560" height="110" class="box warn"/><text x="445" y="740" class="title">Quarantine and Promotion Gate</text><text x="445" y="762" class="small">Parse safely; strip active content; detect prompt injection; validate MIME, OA/license,</text><text x="445" y="780" class="small">relevance, quality, and provenance before indexing.</text><text x="445" y="801" class="tiny">Auto-promote only records that pass policy. Suspicious, ambiguous, or low-confidence</text><text x="445" y="817" class="tiny">records remain reviewable in quarantine.</text>
  <rect x="425" y="833" width="262" height="96" class="box ingest"/><text x="445" y="860" class="title">Paper / Method Cards</text><text x="445" y="881" class="small">Problem, mechanism, datasets, metrics</text><text x="445" y="900" class="small">results, limitations, claims, passages</text><text x="445" y="918" class="tiny">Machine-extracted claims remain explicitly provisional</text>
  <rect x="719" y="833" width="266" height="96" class="box ingest"/><text x="739" y="860" class="title">Implementation Cards</text><text x="739" y="881" class="small">Repo, immutable commit, license, deps</text><text x="739" y="900" class="small">entry points, tests, activity, paper link</text><text x="739" y="918" class="tiny">External code is referenced, never auto-executed</text>
  <rect x="531" y="948" width="348" height="30" rx="9" fill="#047857"/><text x="705" y="968" text-anchor="middle" font-family="Inter,Segoe UI,Arial,sans-serif" font-size="12" font-weight="700" fill="#fff">ATOMIC INDEX COMMIT + INGESTION AUDIT RECEIPT</text>
  <path d="M687 448H719" class="edge-green"/><path d="M556 486V512" class="edge-green"/><path d="M852 486V512" class="edge-green"/><path d="M556 587V613" class="edge-green"/><path d="M852 587V613" class="edge-green"/><path d="M556 695V713" class="edge-amber"/><path d="M852 695V713" class="edge-amber"/><path d="M556 823V833" class="edge-green"/><path d="M852 823V833" class="edge-green"/><path d="M556 929V948M852 929V948" class="edge-green"/>
  <path d="M344 443H382V550H425" class="edge-slate"/><path d="M344 518H382V550" fill="none" stroke="#64748b" stroke-width="1.8"/><path d="M344 593H382V550" fill="none" stroke="#64748b" stroke-width="1.8"/><path d="M344 672H382V654H719" class="edge-slate"/><path d="M344 755H382V654" fill="none" stroke="#64748b" stroke-width="1.8"/><path d="M344 838H382V654" fill="none" stroke="#64748b" stroke-width="1.8"/><path d="M344 928H404V764H425" class="edge-amber"/>

  <rect x="1040" y="360" width="840" height="632" rx="18" fill="#eef2ff" stroke="#a5b4fc" class="cluster"/>
  <text x="1064" y="390" class="cluster-title" fill="#3730a3">READ-ONLY MCP QUERY AND EVIDENCE ASSEMBLY</text>
  <rect x="1070" y="411" width="292" height="87" class="box runtime"/><text x="1090" y="438" class="title">Tool Router</text><text x="1090" y="459" class="small">Schema validation, auth scope, timeout</text><text x="1090" y="479" class="tiny">Stable tool contracts; no arbitrary SQL or URLs</text>
  <rect x="1070" y="524" width="292" height="96" class="box runtime"/><text x="1090" y="551" class="title">Policy + Query Planner</text><text x="1090" y="572" class="small">Hypothesis, benchmark, metrics, cutoff</text><text x="1090" y="591" class="small">filters, max results, token budget</text><text x="1090" y="609" class="tiny">Rejects hidden-test and external-training requests</text>
  <rect x="1070" y="646" width="292" height="126" class="box runtime"/><text x="1090" y="673" class="title">Hybrid Retriever</text><text x="1090" y="695" class="small">BM25 / full-text + vector similarity</text><text x="1090" y="716" class="small">citation / method / paper-code graph expansion</text><text x="1090" y="737" class="small">scope filters + recency + source diversity</text><text x="1090" y="758" class="tiny">Fetches negative and contradictory evidence too</text>
  <rect x="1070" y="798" width="292" height="152" class="box runtime"/><text x="1090" y="825" class="title">Rerank + Evidence Assembler</text><text x="1090" y="847" class="small">Applicability to KuaiRand and current pipeline</text><text x="1090" y="868" class="small">quality, reproducibility, license, code maturity</text><text x="1090" y="889" class="small">claim conflicts, uncertainty, source authority</text><text x="1090" y="910" class="small">deduplicated passages within token budget</text><text x="1090" y="932" class="tiny">Organizer rules and measured runs remain higher authority</text>
  <rect x="1392" y="411" width="458" height="338" class="box" fill="#fff" stroke="#818cf8"/>
  <text x="1414" y="440" class="title">MCP Tool Surface</text>
  <rect x="1414" y="456" width="414" height="31" class="pill" fill="#eef2ff"/><text x="1428" y="477" class="mono">search_recommender_evidence(hypothesis, scope)</text>
  <rect x="1414" y="495" width="414" height="31" class="pill" fill="#eef2ff"/><text x="1428" y="516" class="mono">get_paper_card(paper_id, detail_level)</text>
  <rect x="1414" y="534" width="414" height="31" class="pill" fill="#eef2ff"/><text x="1428" y="555" class="mono">find_implementations(paper_or_method, filters)</text>
  <rect x="1414" y="573" width="414" height="31" class="pill" fill="#eef2ff"/><text x="1428" y="594" class="mono">get_pinned_implementation(repo, revision)</text>
  <rect x="1414" y="612" width="414" height="31" class="pill" fill="#eef2ff"/><text x="1428" y="633" class="mono">compare_evidence(claim_or_methods, scope)</text>
  <rect x="1414" y="651" width="414" height="31" class="pill" fill="#eef2ff"/><text x="1428" y="672" class="mono">trace_citations(paper_id, direction, depth)</text>
  <rect x="1414" y="690" width="414" height="31" class="pill" fill="#eef2ff"/><text x="1428" y="711" class="mono">get_architecture_card(name, version)</text>
  <text x="1414" y="739" class="tiny">Optional local adapter: get_prior_experiment_evidence(scope, top_k)</text>
  <rect x="1392" y="774" width="458" height="176" class="box" fill="#fff" stroke="#818cf8"/>
  <text x="1414" y="803" class="title">Evidence Response Contract</text><text x="1414" y="829" class="small">Claim + exact supporting passage + source tier</text><text x="1414" y="850" class="small">Paper IDs, authors, year, venue, URL, retrieval time</text><text x="1414" y="871" class="small">Repository, immutable commit/release, license, content hash</text><text x="1414" y="892" class="small">Benchmark / metric / model applicability and limitations</text><text x="1414" y="913" class="small">Confidence, contradictions, missing evidence, freshness state</text><text x="1414" y="935" class="tiny">Every response is citable, replayable, bounded, and safe to cache.</text>
  <path d="M1216 498V524" class="edge-blue"/><path d="M1216 620V646" class="edge-blue"/><path d="M1216 772V798" class="edge-blue"/><path d="M1362 454H1392" class="edge-blue"/><path d="M1362 874H1392" class="edge-blue"/><path d="M1655 334V360" class="edge-blue dash"/>

  <rect x="40" y="1018" width="1840" height="250" rx="18" fill="#f1f5f9" stroke="#94a3b8" class="cluster"/>
  <text x="64" y="1048" class="cluster-title" fill="#334155">VERSIONED KNOWLEDGE STORES — LOCAL-FIRST, CONTENT-ADDRESSED, REPLAYABLE</text>
  <rect x="66" y="1072" width="270" height="125" class="box curated"/><text x="84" y="1100" class="title">Curated Registry</text><text x="84" y="1124" class="small">Git-versioned YAML / BibTeX / notes</text><text x="84" y="1145" class="small">allowlists, tags, review state</text><text x="84" y="1166" class="tiny">Manual curation is durable, diffable input</text><text x="84" y="1184" class="tiny">not a hidden authority escalation</text>
  <rect x="365" y="1072" width="270" height="125" class="box store"/><text x="383" y="1100" class="title">Metadata + Provenance DB</text><text x="383" y="1124" class="small">SQLite default / PostgreSQL scale</text><text x="383" y="1145" class="small">papers, versions, claims, licenses</text><text x="383" y="1166" class="tiny">source, timestamps, hashes, status</text>
  <rect x="664" y="1072" width="270" height="125" class="box store"/><text x="682" y="1100" class="title">Lexical Index</text><text x="682" y="1124" class="small">FTS / BM25 over titles, abstracts</text><text x="682" y="1145" class="small">legal full text, code, curated notes</text><text x="682" y="1166" class="tiny">Exact metric, model, dataset matching</text>
  <rect x="963" y="1072" width="270" height="125" class="box store"/><text x="981" y="1100" class="title">Vector Index</text><text x="981" y="1124" class="small">Local embeddings + versioned model ID</text><text x="981" y="1145" class="small">passage and card-level retrieval</text><text x="981" y="1166" class="tiny">Rebuildable from immutable source blobs</text>
  <rect x="1262" y="1072" width="270" height="125" class="box store"/><text x="1280" y="1100" class="title">Relation Graph View</text><text x="1280" y="1124" class="small">paper - method - dataset - metric</text><text x="1280" y="1145" class="small">claim - citation - repository - commit</text><text x="1280" y="1166" class="tiny">Relational edges first; graph DB optional</text>
  <rect x="1561" y="1072" width="270" height="125" class="box store"/><text x="1579" y="1100" class="title">Immutable Object CAS</text><text x="1579" y="1124" class="small">JSON responses, legal PDFs, passages</text><text x="1579" y="1145" class="small">repo snapshots, licenses, audit logs</text><text x="1579" y="1166" class="tiny">Local files / S3-MinIO; SHA-256 identity</text>
  <rect x="66" y="1215" width="1765" height="35" rx="10" fill="#e2e8f0" stroke="#94a3b8"/><text x="948" y="1238" text-anchor="middle" class="small">Atomic generation manifest links metadata, indexes, graph edges, source blobs, embedding model, connector versions, and ingestion receipt</text>
  <path d="M705 978V1005H500V1072" class="edge-green"/><path d="M1216 950V1005H799V1072" class="edge-blue"/><path d="M1216 1005H1098V1072" class="edge-blue"/><path d="M1216 1005H1397V1072" class="edge-blue"/><path d="M1216 1005H1696V1072" class="edge-blue"/><path d="M205 971V1072" class="edge-amber"/>

  <rect x="40" y="1292" width="1840" height="154" rx="18" fill="#fff7ed" stroke="#fdba74" class="cluster"/>
  <text x="64" y="1322" class="cluster-title" fill="#9a3412">CROSS-CUTTING GOVERNANCE, SAFETY, AND OPERATIONS</text>
  <rect x="66" y="1340" width="414" height="82" class="box warn"/><text x="84" y="1367" class="title">Authority and Content Trust</text><text x="84" y="1389" class="small">External text is untrusted data, never instruction</text><text x="84" y="1408" class="tiny">Organizer rules &gt; measured evidence &gt; literature &gt; agent inference</text>
  <rect x="500" y="1340" width="414" height="82" class="box danger"/><text x="518" y="1367" class="title">Competition Integrity Firewall</text><text x="518" y="1389" class="small">No external training examples, labels, or test feedback</text><text x="518" y="1408" class="tiny">MCP cannot mutate splits, evaluator, baseline, runs, or artifacts</text>
  <rect x="934" y="1340" width="414" height="82" class="box" fill="#eff6ff" stroke="#60a5fa"/><text x="952" y="1367" class="title">External Code Adoption Boundary</text><text x="952" y="1389" class="small">Pinned reference enters approved experiment contract only</text><text x="952" y="1408" class="tiny">License check, scan, isolated adaptation, targeted tests; never auto-run</text>
  <rect x="1368" y="1340" width="463" height="82" class="box" fill="#f0fdf4" stroke="#4ade80"/><text x="1386" y="1367" class="title">Reliability and Observability</text><text x="1386" y="1389" class="small">Rate limits, cache, watermarks, retries, health, freshness SLO</text><text x="1386" y="1408" class="tiny">Append-only query/ingestion logs; deterministic offline fallback</text>
  <text x="960" y="1468" text-anchor="middle" font-family="Inter,Segoe UI,Arial,sans-serif" font-size="11" fill="#64748b">Solid blue: online query path   |   Green: scheduled ingestion/write path   |   Amber: curated or gated path   |   Dashed: bounded response or implementation mapping</text>
</svg>
